<mxfile host="app.diagrams.net" agent="Mozilla/5.0 (Windows NT 10.0; Win64; x64; rv:133.0) Gecko/20100101 Firefox/133.0" version="24.9.3">
  <diagram name="Page-1" id="ZGQT1D6EYQNVwvctGvdy">
    <mxGraphModel dx="819" dy="447" grid="1" gridSize="10" guides="1" tooltips="1" connect="1" arrows="1" fold="1" page="1" pageScale="1" pageWidth="850" pageHeight="1100" math="0" shadow="0">
      <root>
        <mxCell id="0" />
        <mxCell id="1" parent="0" />
        <mxCell id="TExF1Eow3FBrH_CrUCO0-14" value="User" style="swimlane;childLayout=stackLayout;horizontal=1;startSize=50;horizontalStack=0;rounded=1;fontSize=14;fontStyle=0;strokeWidth=2;resizeParent=0;resizeLast=1;shadow=0;dashed=0;align=center;arcSize=4;whiteSpace=wrap;html=1;" parent="1" vertex="1">
          <mxGeometry x="631" y="649" width="160" height="160" as="geometry">
            <mxRectangle x="631" y="649" width="70" height="50" as="alternateBounds" />
          </mxGeometry>
        </mxCell>
        <mxCell id="TExF1Eow3FBrH_CrUCO0-15" value="&lt;div&gt;user_ID (PK)&lt;/div&gt;&lt;div&gt;user_name&lt;/div&gt;&lt;div&gt;password&lt;/div&gt;&lt;div&gt;email&lt;/div&gt;&lt;div&gt;date_of_creation&lt;/div&gt;&lt;div&gt;nationality&lt;/div&gt;&lt;div&gt;date_of_birth&lt;/div&gt;" style="align=left;strokeColor=none;fillColor=none;spacingLeft=4;fontSize=12;verticalAlign=top;resizable=0;rotatable=0;part=1;html=1;" parent="TExF1Eow3FBrH_CrUCO0-14" vertex="1">
          <mxGeometry y="50" width="160" height="110" as="geometry" />
        </mxCell>
        <mxCell id="TExF1Eow3FBrH_CrUCO0-17" value="Song" style="swimlane;childLayout=stackLayout;horizontal=1;startSize=50;horizontalStack=0;rounded=1;fontSize=14;fontStyle=0;strokeWidth=2;resizeParent=0;resizeLast=1;shadow=0;dashed=0;align=center;arcSize=4;whiteSpace=wrap;html=1;" parent="1" vertex="1">
          <mxGeometry x="630" y="390" width="160" height="150" as="geometry" />
        </mxCell>
        <mxCell id="TExF1Eow3FBrH_CrUCO0-18" value="song_ID (PK)&lt;div&gt;title&lt;/div&gt;&lt;div&gt;release_date&lt;/div&gt;&lt;div&gt;duration&lt;/div&gt;&lt;div&gt;artist_ID (FK)&lt;/div&gt;&lt;div&gt;album_ID (FK)&lt;/div&gt;" style="align=left;strokeColor=none;fillColor=none;spacingLeft=4;fontSize=12;verticalAlign=top;resizable=0;rotatable=0;part=1;html=1;" parent="TExF1Eow3FBrH_CrUCO0-17" vertex="1">
          <mxGeometry y="50" width="160" height="100" as="geometry" />
        </mxCell>
        <mxCell id="TExF1Eow3FBrH_CrUCO0-20" value="Artist" style="swimlane;childLayout=stackLayout;horizontal=1;startSize=50;horizontalStack=0;rounded=1;fontSize=14;fontStyle=0;strokeWidth=2;resizeParent=0;resizeLast=1;shadow=0;dashed=0;align=center;arcSize=4;whiteSpace=wrap;html=1;" parent="1" vertex="1">
          <mxGeometry x="890" y="180" width="160" height="120" as="geometry" />
        </mxCell>
        <mxCell id="TExF1Eow3FBrH_CrUCO0-21" value="artist_ID (PK)&lt;div&gt;name&lt;/div&gt;&lt;div&gt;bio&lt;/div&gt;&lt;div&gt;nationality&lt;/div&gt;" style="align=left;strokeColor=none;fillColor=none;spacingLeft=4;fontSize=12;verticalAlign=top;resizable=0;rotatable=0;part=1;html=1;" parent="TExF1Eow3FBrH_CrUCO0-20" vertex="1">
          <mxGeometry y="50" width="160" height="70" as="geometry" />
        </mxCell>
        <mxCell id="TExF1Eow3FBrH_CrUCO0-22" value="Album" style="swimlane;childLayout=stackLayout;horizontal=1;startSize=50;horizontalStack=0;rounded=1;fontSize=14;fontStyle=0;strokeWidth=2;resizeParent=0;resizeLast=1;shadow=0;dashed=0;align=center;arcSize=4;whiteSpace=wrap;html=1;" parent="1" vertex="1">
          <mxGeometry x="900" y="405" width="160" height="135" as="geometry" />
        </mxCell>
        <mxCell id="TExF1Eow3FBrH_CrUCO0-23" value="album_ID (PK)&lt;div&gt;title&lt;/div&gt;&lt;div&gt;duration&lt;/div&gt;&lt;div&gt;release_date&lt;/div&gt;&lt;div&gt;artist_ID (FK)&lt;/div&gt;" style="align=left;strokeColor=none;fillColor=none;spacingLeft=4;fontSize=12;verticalAlign=top;resizable=0;rotatable=0;part=1;html=1;" parent="TExF1Eow3FBrH_CrUCO0-22" vertex="1">
          <mxGeometry y="50" width="160" height="85" as="geometry" />
        </mxCell>
        <mxCell id="TExF1Eow3FBrH_CrUCO0-26" value="" style="edgeStyle=entityRelationEdgeStyle;fontSize=12;html=1;endArrow=ERoneToMany;startArrow=ERmandOne;rounded=0;exitX=0;exitY=0.416;exitDx=0;exitDy=0;entryX=1;entryY=0.5;entryDx=0;entryDy=0;exitPerimeter=0;" parent="1" source="TExF1Eow3FBrH_CrUCO0-23" target="TExF1Eow3FBrH_CrUCO0-18" edge="1">
          <mxGeometry width="100" height="100" relative="1" as="geometry">
            <mxPoint x="780" y="520" as="sourcePoint" />
            <mxPoint x="880" y="420" as="targetPoint" />
          </mxGeometry>
        </mxCell>
        <mxCell id="TExF1Eow3FBrH_CrUCO0-27" value="" style="edgeStyle=orthogonalEdgeStyle;fontSize=12;html=1;endArrow=ERzeroToMany;startArrow=ERmandOne;rounded=0;entryX=0.5;entryY=0;entryDx=0;entryDy=0;" parent="1" target="TExF1Eow3FBrH_CrUCO0-22" edge="1">
          <mxGeometry width="100" height="100" relative="1" as="geometry">
            <mxPoint x="980" y="300" as="sourcePoint" />
            <mxPoint x="1130" y="530" as="targetPoint" />
            <Array as="points">
              <mxPoint x="980" y="300" />
            </Array>
          </mxGeometry>
        </mxCell>
        <mxCell id="TExF1Eow3FBrH_CrUCO0-28" value="Playlist" style="swimlane;childLayout=stackLayout;horizontal=1;startSize=50;horizontalStack=0;rounded=1;fontSize=14;fontStyle=0;strokeWidth=2;resizeParent=0;resizeLast=1;shadow=0;dashed=0;align=center;arcSize=4;whiteSpace=wrap;html=1;" parent="1" vertex="1">
          <mxGeometry x="360" y="650" width="160" height="130" as="geometry" />
        </mxCell>
        <mxCell id="TExF1Eow3FBrH_CrUCO0-29" value="playlist_ID (PK)&lt;div&gt;title&lt;/div&gt;&lt;div&gt;created_on&lt;/div&gt;&lt;div&gt;user_ID (FK)&lt;/div&gt;" style="align=left;strokeColor=none;fillColor=none;spacingLeft=4;fontSize=12;verticalAlign=top;resizable=0;rotatable=0;part=1;html=1;" parent="TExF1Eow3FBrH_CrUCO0-28" vertex="1">
          <mxGeometry y="50" width="160" height="80" as="geometry" />
        </mxCell>
        <mxCell id="TExF1Eow3FBrH_CrUCO0-31" value="" style="fontSize=12;html=1;endArrow=ERzeroToMany;startArrow=ERmandOne;rounded=0;edgeStyle=orthogonalEdgeStyle;exitX=0.01;exitY=0.345;exitDx=0;exitDy=0;exitPerimeter=0;" parent="1" source="TExF1Eow3FBrH_CrUCO0-15" edge="1">
          <mxGeometry width="100" height="100" relative="1" as="geometry">
            <mxPoint x="655" y="740" as="sourcePoint" />
            <mxPoint x="520" y="737" as="targetPoint" />
            <Array as="points" />
          </mxGeometry>
        </mxCell>
        <mxCell id="TExF1Eow3FBrH_CrUCO0-32" value="Subscription" style="swimlane;childLayout=stackLayout;horizontal=1;startSize=50;horizontalStack=0;rounded=1;fontSize=14;fontStyle=0;strokeWidth=2;resizeParent=0;resizeLast=1;shadow=0;dashed=0;align=center;arcSize=4;whiteSpace=wrap;html=1;" parent="1" vertex="1">
          <mxGeometry x="900" y="650" width="160" height="130" as="geometry" />
        </mxCell>
        <mxCell id="TExF1Eow3FBrH_CrUCO0-33" value="subscription_ID (PK)&lt;div&gt;user_ID (FK)&lt;/div&gt;&lt;div&gt;start_date&lt;/div&gt;&lt;div&gt;end_date&lt;/div&gt;&lt;div&gt;subscription_type_ID (FK)&lt;/div&gt;" style="align=left;strokeColor=none;fillColor=none;spacingLeft=4;fontSize=12;verticalAlign=top;resizable=0;rotatable=0;part=1;html=1;" parent="TExF1Eow3FBrH_CrUCO0-32" vertex="1">
          <mxGeometry y="50" width="160" height="80" as="geometry" />
        </mxCell>
        <mxCell id="-d9jePd-C0OHCfDI-rgQ-1" value="" style="fontSize=12;html=1;endArrow=ERzeroToMany;startArrow=ERmandOne;rounded=0;entryX=0.002;entryY=0.31;entryDx=0;entryDy=0;exitX=1.008;exitY=0.226;exitDx=0;exitDy=0;exitPerimeter=0;entryPerimeter=0;" parent="1" source="TExF1Eow3FBrH_CrUCO0-15" target="TExF1Eow3FBrH_CrUCO0-33" edge="1">
          <mxGeometry width="100" height="100" relative="1" as="geometry">
            <mxPoint x="520" y="993" as="sourcePoint" />
            <mxPoint x="578" y="1010" as="targetPoint" />
          </mxGeometry>
        </mxCell>
        <mxCell id="lLn4cX0-2n4NIjjHmInJ-1" value="Subscription_Type" style="swimlane;childLayout=stackLayout;horizontal=1;startSize=50;horizontalStack=0;rounded=1;fontSize=14;fontStyle=0;strokeWidth=2;resizeParent=0;resizeLast=1;shadow=0;dashed=0;align=center;arcSize=4;whiteSpace=wrap;html=1;" parent="1" vertex="1">
          <mxGeometry x="1180" y="652" width="160" height="120" as="geometry" />
        </mxCell>
        <mxCell id="lLn4cX0-2n4NIjjHmInJ-2" value="subscription_type_ID (PK)&lt;div&gt;name&lt;/div&gt;&lt;div&gt;price&lt;/div&gt;" style="align=left;strokeColor=none;fillColor=none;spacingLeft=4;fontSize=12;verticalAlign=top;resizable=0;rotatable=0;part=1;html=1;" parent="lLn4cX0-2n4NIjjHmInJ-1" vertex="1">
          <mxGeometry y="50" width="160" height="70" as="geometry" />
        </mxCell>
        <mxCell id="lLn4cX0-2n4NIjjHmInJ-4" value="" style="fontSize=12;html=1;endArrow=ERoneToMany;startArrow=ERmandOne;rounded=0;entryX=1.011;entryY=0.214;entryDx=0;entryDy=0;exitX=0.014;exitY=0.211;exitDx=0;exitDy=0;exitPerimeter=0;entryPerimeter=0;" parent="1" source="lLn4cX0-2n4NIjjHmInJ-2" target="TExF1Eow3FBrH_CrUCO0-33" edge="1">
          <mxGeometry width="100" height="100" relative="1" as="geometry">
            <mxPoint x="890" y="960" as="sourcePoint" />
            <mxPoint x="820" y="970" as="targetPoint" />
          </mxGeometry>
        </mxCell>
        <mxCell id="OeJZVBYYuw-1wiTgj99A-2" value="Playlist_Song" style="swimlane;childLayout=stackLayout;horizontal=1;startSize=50;horizontalStack=0;rounded=1;fontSize=14;fontStyle=0;strokeWidth=2;resizeParent=0;resizeLast=1;shadow=0;dashed=0;align=center;arcSize=4;whiteSpace=wrap;html=1;" parent="1" vertex="1">
          <mxGeometry x="360" y="420" width="160" height="120" as="geometry" />
        </mxCell>
        <mxCell id="OeJZVBYYuw-1wiTgj99A-3" value="playlist_ID (PK) (FK)&lt;br&gt;song_ID (PK) (FK)" style="align=left;strokeColor=none;fillColor=none;spacingLeft=4;fontSize=12;verticalAlign=top;resizable=0;rotatable=0;part=1;html=1;" parent="OeJZVBYYuw-1wiTgj99A-2" vertex="1">
          <mxGeometry y="50" width="160" height="70" as="geometry" />
        </mxCell>
        <mxCell id="OeJZVBYYuw-1wiTgj99A-6" value="" style="edgeStyle=orthogonalEdgeStyle;fontSize=12;html=1;endArrow=ERzeroToMany;startArrow=ERmandOne;rounded=0;entryX=0.5;entryY=1;entryDx=0;entryDy=0;exitX=0.5;exitY=0;exitDx=0;exitDy=0;" parent="1" source="TExF1Eow3FBrH_CrUCO0-28" target="OeJZVBYYuw-1wiTgj99A-3" edge="1">
          <mxGeometry width="100" height="100" relative="1" as="geometry">
            <mxPoint x="540" y="734.04" as="sourcePoint" />
            <mxPoint x="542.0799999999999" y="520.01" as="targetPoint" />
            <Array as="points">
              <mxPoint x="440" y="590" />
              <mxPoint x="440" y="590" />
            </Array>
          </mxGeometry>
        </mxCell>
        <mxCell id="OeJZVBYYuw-1wiTgj99A-7" value="" style="fontSize=12;html=1;endArrow=ERzeroToMany;startArrow=ERmandOne;rounded=0;entryX=1;entryY=0.25;entryDx=0;entryDy=0;exitX=-0.006;exitY=0.473;exitDx=0;exitDy=0;exitPerimeter=0;" parent="1" source="TExF1Eow3FBrH_CrUCO0-18" target="OeJZVBYYuw-1wiTgj99A-3" edge="1">
          <mxGeometry width="100" height="100" relative="1" as="geometry">
            <mxPoint x="590" y="450" as="sourcePoint" />
            <mxPoint x="650" y="350" as="targetPoint" />
          </mxGeometry>
        </mxCell>
        <mxCell id="jNaG5KW6tlKVzOO-jbQk-2" value="" style="edgeStyle=orthogonalEdgeStyle;fontSize=12;html=1;endArrow=ERzeroToMany;startArrow=ERmandOne;rounded=0;entryX=0.5;entryY=0;entryDx=0;entryDy=0;exitX=0;exitY=0.5;exitDx=0;exitDy=0;" edge="1" parent="1" source="TExF1Eow3FBrH_CrUCO0-20" target="TExF1Eow3FBrH_CrUCO0-17">
          <mxGeometry width="100" height="100" relative="1" as="geometry">
            <mxPoint x="870" y="220" as="sourcePoint" />
            <mxPoint x="690" y="370" as="targetPoint" />
          </mxGeometry>
        </mxCell>
      </root>
    </mxGraphModel>
  </diagram>
</mxfile>
